#!OML:ASF F:\VICON\USERDATA\INSTALL\rory3\rory3.ASF
:FULLY-SPECIFIED
:DEGREES
1127
root 3.39126 20.0055 2.8187 -168.697 -10.6653 -180.496
lowerback 12.5631 -0.361187 -4.40411
upperback 4.72923 -1.4751 0.417256
thorax -1.9664 -0.976676 3.13062
lowerneck -15.0053 4.39885 -11.4549
upperneck 39.886 5.65337 0.705727
head 16.5532 -0.68095 2.91587
rclavicle -8.15017e-015 5.1684e-015
rhumerus 20.9842 2.65572 -78.3633
rradius 91.0561
rwrist 1.87473
rhand -31.4635 -11.057
rfingers 7.12502
rthumb -4.73072 -40.9842
lclavicle -8.15017e-015 5.1684e-015
lhumerus 46.571 -0.536906 67.4732
lradius 57.5737
lwrist 23.2117
lhand -20.243 40.8644
lfingers 7.12502
lthumb 6.10522 70.7564
rfemur -13.4196 2.4464 20.467
rtibia 11.7227
rfoot 18.7213 -22.6255
rtoes 20.0419
lfemur -64.7734 3.38162 -23.6712
ltibia 75.7645
lfoot -16.104 -15.6834
ltoes 6.7121
1128
root 3.42157 19.848 2.8575 -169.136 -10.8798 -180.617
lowerback 12.4962 -0.323618 -4.6888
upperback 4.90577 -1.46544 0.648082
thorax -1.73178 -0.994099 3.52661
lowerneck -15.022 4.29922 -11.8598
upperneck 39.7703 5.67485 0.665279
head 16.4888 -0.726826 2.96941
rclavicle -3.03147e-014 1.47101e-014
rhumerus 20.8075 2.49891 -78.2805
rradius 91.0817
rwrist 2.05526
rhand -31.9351 -10.8697
rfingers 7.12502
rthumb -5.18607 -40.7863
lclavicle -3.03147e-014 1.47101e-014
lhumerus 47.4614 -0.404779 66.8877
lradius 56.1804
lwrist 23.0691
lhand -20.4811 40.645
lfingers 7.12502
lthumb 5.87531 70.5435
rfemur -12.5704 1.87381 20.5405
rtibia 11.5165
rfoot 17.3715 -20.0893
rtoes 15.5816
lfemur -65.1295 3.30867 -23.72
ltibia 77.0819
lfoot -16.7837 -15.7777
ltoes 5.79487
1129
root 3.45201 19.6984 2.89711 -169.459 -11.1476 -180.688
lowerback 12.4876 -0.37063 -4.60845
upperback 4.88044 -1.51349 0.651946
thorax -1.75121 -1.01433 3.49181
lowerneck -14.983 4.37926 -11.9209
upperneck 39.9198 5.71292 0.855907
head 16.5384 -0.713779 3.0692
rclavicle 1.60022e-014 -1.59028e-014
rhumerus 20.2338 2.24942 -78.5939
rradius 91.1268
rwrist 2.41878
rhand -32.6327 -10.6417
rfingers 7.12502
rthumb -5.85962 -40.5407
lclavicle 1.60022e-014 -1.59028e-014
lhumerus 48.1159 -0.505042 65.754
lradius 54.7751
lwrist 22.9209
lhand -20.8107 40.683
lfingers 7.12502
lthumb 5.55716 70.5902
rfemur -11.9374 1.13919 20.7046
rtibia 11.7354
rfoot 15.3519 -16.6444
rtoes 10.5885
lfemur -65.7871 3.24949 -23.7976
ltibia 78.4377
lfoot -17.536 -15.7126
ltoes 4.86508
1130
root 3.48487 19.5591 2.93818 -169.825 -11.4778 -180.686
lowerback 12.5186 -0.431569 -4.54594
upperback 4.82538 -1.57872 0.749372
thorax -1.8181 -1.041 3.56908
lowerneck -14.8806 4.53238 -11.9165
upperneck 40.0525 5.87758 0.905363
head 16.5638 -0.660393 3.11272
rclavicle -3.32964e-014 -4.17448e-015
rhumerus 19.5941 2.12901 -78.8888
rradius 91.1018
rwrist 2.73541
rhand -33.3216 -10.3702
rfingers 7.12502
rthumb -6.52471 -40.2497
lclavicle -3.32964e-014 -4.17448e-015
lhumerus 48.6701 -0.606177 64.5765
lradius 53.3229
lwrist 22.5513
lhand -21.436 40.8411
lfingers 7.12502
lthumb 4.95336 70.7632
rfemur -11.3474 0.452114 20.9705
rtibia 12.3395
rfoot 12.6761 -13.3789
rtoes 8.43112
lfemur -66.5765 3.2444 -23.8661
ltibia 79.8445
lfoot -18.4356 -15.5666
ltoes 5.64703
1131
root 3.52057 19.4145 2.98073 -170.168 -11.8917 -180.71
lowerback 12.5814 -0.554272 -4.32325
upperback 4.73665 -1.70911 0.70684
thorax -1.94109 -1.09397 3.41978
lowerneck -14.842 4.61903 -11.9399
upperneck 40.1414 5.95725 1.0122
head 16.5847 -0.630399 3.17516
rclavicle -1.19271e-015 1.41137e-014
rhumerus 19.0695 1.90849 -79.4424
rradius 90.9706
rwrist 2.9051
rhand -33.8992 -10.3501
rfingers 7.12502
rthumb -7.08223 -40.2116
lclavicle -1.19271e-015 1.41137e-014
lhumerus 49.1483 -0.797825 63.2237
lradius 51.8775
lwrist 21.8548
lhand -22.6511 40.7794
lfingers 7.12502
lthumb 3.78003 70.7256
rfemur -10.7218 -0.0526031 21.215
rtibia 12.9169
rfoot 9.97514 -10.5675
rtoes 7.64084
lfemur -67.3273 3.23169 -23.9556
ltibia 81.2406
lfoot -19.0012 -15.6803
ltoes 7.1822
1132
root 3.55536 19.2543 3.02542 -170.407 -12.3397 -180.741
lowerback 12.4857 -0.68565 -4.29612
upperback 4.652 -1.85679 0.888161
thorax -1.95844 -1.16049 3.61259
lowerneck -14.9708 4.62668 -12.2574
upperneck 40.2657 6.08748 0.987722
head 16.6667 -0.653203 3.24124
rclavicle 1.55549e-014 2.5842e-015
rhumerus 18.6737 1.91619 -79.5947
rradius 90.8854
rwrist 2.78581
rhand -34.3323 -11.0826
rfingers 7.12502
rthumb -7.5003 -40.9296
lclavicle 1.55549e-014 2.5842e-015
lhumerus 49.4765 -0.758656 62.4326
lradius 50.4874
lwrist 20.5417
lhand -24.4104 40.9811
lfingers 7.12502
lthumb 2.08101 70.9507
rfemur -10.2613 -0.365831 21.4129
rtibia 13.4522
rfoot 7.19846 -8.32771
rtoes 6.71559
lfemur -68.2225 3.01492 -23.9729
ltibia 82.6472
lfoot -19.1565 -15.8064
ltoes 8.75875
1133
root 3.5853 19.1027 3.06844 -170.786 -12.5287 -180.761
lowerback 12.432 -0.717249 -3.99986
upperback 4.6273 -1.85887 0.795408
thorax -1.96852 -1.15555 3.34704
lowerneck -15.0226 4.61905 -12.2957
upperneck 40.3419 6.04626 1.13903
head 16.7117 -0.663439 3.31119
rclavicle -3.42904e-015 1.5704e-014
rhumerus 18.0566 1.6053 -80.0434
rradius 90.8725
rwrist 2.79678
rhand -34.3711 -11.7555
rfingers 7.12502
rthumb -7.53779 -41.6012
lclavicle -3.42904e-015 1.5704e-014
lhumerus 49.838 -0.914194 61.5579
lradius 49.2625
lwrist 18.9353
lhand -24.9907 41.1147
lfingers 7.12502
lthumb 1.52057 71.089
rfemur -9.90756 -0.341601 21.5219
rtibia 14.0805
rfoot 4.41586 -6.66621
rtoes 6.21519
lfemur -68.9193 3.11498 -24.0816
ltibia 84.0068
lfoot -19.5375 -15.8857
ltoes 8.98262
1134
root 3.61582 18.9711 3.10088 -171.403 -12.6551 -180.886
lowerback 12.6501 -0.655994 -4.04948
upperback 4.58868 -1.79407 0.791998
thorax -2.13117 -1.11942 3.37095
lowerneck -14.7577 4.63555 -12.2479
upperneck 40.2553 6.02175 1.0904
head 16.6052 -0.667855 3.2661
rclavicle -3.38431e-014 1.09332e-015
rhumerus 17.1937 1.30197 -80.3122
rradius 90.7317
rwrist 2.97403
rhand -34.6386 -11.7106
rfingers 7.12502
rthumb -7.79593 -41.5469
lclavicle -3.38431e-014 1.09332e-015
lhumerus 49.8524 -1.0981 61.0619
lradius 48.3149
lwrist 17.215
lhand -24.807 40.8234
lfingers 7.12502
lthumb 1.69798 70.7964
rfemur -9.40255 -0.418383 21.5401
rtibia 14.6358
rfoot 2.10017 -5.31287
rtoes 5.57463
lfemur -69.1349 3.36836 -24.3088
ltibia 85.277
lfoot -20.1479 -16.0063
ltoes 8.31663
1135
root 3.64574 18.8471 3.13357 -171.937 -12.7143 -180.987
lowerback 12.7034 -0.63976 -4.03983
upperback 4.53876 -1.77094 0.748958
thorax -2.21605 -1.1027 3.32007
lowerneck -14.4042 4.74676 -12.0051
upperneck 40.2104 6.09965 0.868283
head 16.5082 -0.636826 3.12314
rclavicle -1.78658e-014 4.47266e-015
rhumerus 16.3722 1.09567 -80.7164
rradius 90.467
rwrist 3.04554
rhand -35.1546 -11.4127
rfingers 7.12502
rthumb -8.29396 -41.2299
lclavicle -1.78658e-014 4.47266e-015
lhumerus 49.5158 -1.13682 60.725
lradius 47.78
lwrist 15.639
lhand -25.023 40.9707
lfingers 7.12502
lthumb 1.48938 70.9452
rfemur -9.02583 -0.717238 21.6412
rtibia 15.0996
rfoot 0.292553 -4.1623
rtoes 5.39443
lfemur -69.4573 3.66835 -24.5146
ltibia 86.5132
lfoot -20.4777 -16.1083
ltoes 7.80869
1136
root 3.67456 18.7258 3.18446 -172.28 -12.6232 -180.724
lowerback 12.5846 -0.605481 -3.74528
upperback 4.45299 -1.66949 0.851142
thorax -2.25546 -1.04328 3.24442
lowerneck -14.0834 4.83484 -11.9454
upperneck 40.1248 6.1928 0.710168
head 16.3874 -0.611574 3.04346
rclavicle 1.28713e-014 -1.19768e-014
rhumerus 15.6299 0.978512 -81.0473
rradius 90.1393
rwrist 3.27006
rhand -35.6869 -11.4079
rfingers 7.12502
rthumb -8.80769 -41.2041
lclavicle 1.28713e-014 -1.19768e-014
lhumerus 49.0109 -0.992766 60.8207
lradius 47.4744
lwrist 14.2771
lhand -25.7559 40.6946
lfingers 7.12502
lthumb 0.781518 70.6729
rfemur -9.10197 -0.83478 22.1708
rtibia 15.7246
rfoot -1.44286 -3.44678
rtoes 7.11052
lfemur -70.2745 4.12551 -24.3634
ltibia 87.7547
lfoot -20.45 -16.2773
ltoes 7.7927
1137
root 3.70617 18.6063 3.23988 -172.757 -12.4471 -180.239
lowerback 12.792 -0.480368 -3.32409
upperback 4.34086 -1.44769 1.03473
thorax -2.50921 -0.921937 3.1756
lowerneck -13.8674 4.90156 -11.8974
upperneck 40.1461 6.25147 0.607511
head 16.349 -0.605928 2.98965
rclavicle -3.2961e-014 1.32192e-014
rhumerus 14.7237 0.723104 -81.2747
rradius 89.8856
rwrist 3.47759
rhand -36.1078 -11.7222
rfingers 7.12502
rthumb -9.21381 -41.5009
lclavicle -3.2961e-014 1.32192e-014
lhumerus 48.3459 -0.943597 61.1382
lradius 47.5042
lwrist 13.63
lhand -26.4038 40.1227
lfingers 7.12502
lthumb 0.155743 70.1024
rfemur -9.23302 -0.600026 22.9847
rtibia 16.5701
rfoot -3.50637 -3.27842
rtoes 8.96222
lfemur -71.0668 4.71824 -23.961
ltibia 89.0128
lfoot -20.3935 -16.4442
ltoes 8.22937
1138
root 3.73612 18.4931 3.29216 -173.258 -12.1972 -179.595
lowerback 13.2791 -0.368342 -2.76403
upperback 4.04976 -1.21749 1.22372
thorax -3.10341 -0.783214 3.04072
lowerneck -13.6994 5.09017 -11.5255
upperneck 40.4587 6.37177 0.435954
head 16.4869 -0.5802 2.86038
rclavicle 4.69668e-015 6.80216e-016
rhumerus 13.3758 0.503044 -81.5364
rradius 89.689
rwrist 3.73889
rhand -36.5671 -11.8449
rfingers 7.12502
rthumb -9.65696 -41.6036
lclavicle 4.69668e-015 6.80216e-016
lhumerus 47.1463 -0.982326 61.4406
lradius 47.9827
lwrist 13.789
lhand -26.827 39.5621
lfingers 7.12502
lthumb -0.253028 69.5417
rfemur -9.46116 -0.416241 23.9986
rtibia 17.5289
rfoot -5.57628 -3.31976
rtoes 9.44077
lfemur -71.867 5.39913 -23.4074
ltibia 90.2784
lfoot -20.2776 -16.4931
ltoes 8.48962
1139
root 3.75958 18.3893 3.34088 -173.549 -11.9477 -179.04
lowerback 13.2272 -0.283681 -2.36812
upperback 3.98614 -1.03872 1.49626
thorax -3.15615 -0.692588 3.07457
lowerneck -13.7906 5.19389 -11.4026
upperneck 40.6369 6.54544 0.268784
head 16.6095 -0.544165 2.79379
rclavicle 1.08338e-014 -4.91992e-015
rhumerus 12.3285 0.414859 -81.6258
rradius 89.4013
rwrist 3.79882
rhand -37.3964 -11.3347
rfingers 7.12502
rthumb -10.457 -41.0546
lclavicle 1.08338e-014 -4.91992e-015
lhumerus 46.0029 -0.67072 62.0624
lradius 48.715
lwrist 14.5675
lhand -26.7091 38.7442
lfingers 7.12502
lthumb -0.139145 68.7239
rfemur -9.96581 -0.467744 24.9054
rtibia 18.5715
rfoot -7.43297 -3.35288
rtoes 11.0386
lfemur -72.8317 5.96235 -22.9361
ltibia 91.4649
lfoot -20.0021 -16.5739
ltoes 8.59558
1140
root 3.78011 18.2895 3.38208 -173.692 -11.8306 -178.662
lowerback 12.8148 -0.243513 -2.1492
upperback 4.03141 -0.941948 1.75931
thorax -2.89014 -0.651239 3.20141
lowerneck -13.9161 5.24168 -11.3662
upperneck 40.722 6.70067 0.0700532
head 16.6939 -0.519339 2.72663
rclavicle 2.08724e-014 -5.96354e-016
rhumerus 11.3456 0.279476 -81.6311
rradius 89.1081
rwrist 3.44376
rhand -37.9375 -10.6484
rfingers 7.12502
rthumb -10.979 -40.3413
lclavicle 2.08724e-014 -5.96354e-016
lhumerus 44.7868 -0.254094 62.7671
lradius 49.7349
lwrist 15.7678
lhand -25.9958 38.3246
lfingers 7.12502
lthumb 0.549763 68.3037
rfemur -10.4551 -0.699261 25.613
rtibia 19.4114
rfoot -9.04153 -3.35772
rtoes 12.5592
lfemur -73.7382 6.2847 -22.5895
ltibia 92.4774
lfoot -19.63 -16.7702
ltoes 8.01531
